<svg width="24" height="24" viewBox="0 0 24 24" fill="none" xmlns="http://www.w3.org/2000/svg">
<mask id="mask0_9603_2979" style="mask-type:alpha" maskUnits="userSpaceOnUse" x="0" y="0" width="24" height="24">
<rect width="24" height="24" fill="#D9D9D9"/>
</mask>
<g mask="url(#mask0_9603_2979)">
<path d="M21 6.75V17.25C21 17.7312 20.8237 18.1432 20.4713 18.4859C20.1187 18.8286 19.695 19 19.2 19H4.8C4.305 19 3.88125 18.8286 3.52875 18.4859C3.17625 18.1432 3 17.7312 3 17.25V6.75C3 6.26875 3.17625 5.85677 3.52875 5.51406C3.88125 5.17135 4.305 5 4.8 5H19.2C19.695 5 20.1187 5.17135 20.4713 5.51406C20.8237 5.85677 21 6.26875 21 6.75ZM4.8 8.5H19.2V6.75H4.8V8.5ZM4.8 12V17.25H19.2V12H4.8Z" fill="#959595"/>
</g>
</svg>
