<svg width="24" height="24" viewBox="0 0 24 24" fill="none" xmlns="http://www.w3.org/2000/svg">
<path d="M20.7632 19.0263V12.3819C20.7632 11.8465 20.6542 11.3167 20.443 10.8247C20.2318 10.3327 19.9227 9.88882 19.5345 9.52006L13.2414 3.54275C12.8746 3.19429 12.388 2.99999 11.8821 2.99999C11.3761 2.99999 10.8895 3.19429 10.5227 3.54275L4.22862 9.52006C3.84045 9.88882 3.53135 10.3327 3.32014 10.8247C3.10892 11.3167 3 11.8465 3 12.3819V19.0263C3 19.5498 3.20794 20.0518 3.57808 20.4219C3.94822 20.792 4.45023 21 4.97368 21H18.7895C19.3129 21 19.8149 20.792 20.1851 20.4219C20.5552 20.0518 20.7632 19.5498 20.7632 19.0263Z" fill="#222222" stroke="#222222" stroke-width="2" stroke-linecap="round" stroke-linejoin="round"/>
</svg>
