<svg width="24" height="24" viewBox="0 0 24 24" fill="none" xmlns="http://www.w3.org/2000/svg">
<mask id="mask0_9606_1971" style="mask-type:alpha" maskUnits="userSpaceOnUse" x="0" y="0" width="24" height="24">
<rect width="24" height="24" fill="#D9D9D9"/>
</mask>
<g mask="url(#mask0_9606_1971)">
<path d="M20.0622 11.1556V18.2222C20.0622 18.7111 19.8867 19.1296 19.5359 19.4778C19.185 19.8259 18.7633 20 18.2706 20H5.72943C5.23675 20 4.81498 19.8259 4.46412 19.4778C4.11327 19.1296 3.93784 18.7111 3.93784 18.2222V11.1556C3.59445 10.8444 3.32945 10.4444 3.14282 9.95556C2.9562 9.46667 2.95247 8.93333 3.13163 8.35556L4.07221 5.33333C4.19165 4.94815 4.4044 4.62963 4.71047 4.37778C5.01653 4.12593 5.37112 4 5.77422 4H18.2258C18.6289 4 18.9797 4.12222 19.2783 4.36667C19.5769 4.61111 19.7934 4.93333 19.9278 5.33333L20.8684 8.35556C21.0475 8.93333 21.0438 9.45926 20.8572 9.93333C20.6706 10.4074 20.4055 10.8148 20.0622 11.1556ZM13.9707 10.2222C14.3739 10.2222 14.6799 10.0852 14.8889 9.81111C15.098 9.53704 15.1801 9.22963 15.1353 8.88889L14.6426 5.77778H12.8958V9.06667C12.8958 9.37778 13.0003 9.64815 13.2093 9.87778C13.4183 10.1074 13.6722 10.2222 13.9707 10.2222ZM9.93967 10.2222C10.2831 10.2222 10.563 10.1074 10.7795 9.87778C10.996 9.64815 11.1042 9.37778 11.1042 9.06667V5.77778H9.3574L8.86472 8.88889C8.805 9.24444 8.88338 9.55556 9.09986 9.82222C9.31635 10.0889 9.59628 10.2222 9.93967 10.2222ZM5.95338 10.2222C6.22212 10.2222 6.45727 10.1259 6.65882 9.93333C6.86037 9.74074 6.98355 9.4963 7.02834 9.2L7.52102 5.77778H5.77422L4.87843 8.75556C4.78885 9.05185 4.83737 9.37037 5.02399 9.71111C5.21062 10.0519 5.52041 10.2222 5.95338 10.2222ZM18.0466 10.2222C18.4796 10.2222 18.7931 10.0519 18.9872 9.71111C19.1813 9.37037 19.2261 9.05185 19.1216 8.75556L18.181 5.77778H16.479L16.9717 9.2C17.0165 9.4963 17.1396 9.74074 17.3412 9.93333C17.5427 10.1259 17.7779 10.2222 18.0466 10.2222ZM5.72943 18.2222H18.2706V11.9556C18.1959 11.9852 18.1474 12 18.125 12H18.0466C17.6435 12 17.2889 11.9333 16.9829 11.8C16.6768 11.6667 16.3745 11.4519 16.0759 11.1556C15.8071 11.4222 15.5011 11.6296 15.1577 11.7778C14.8143 11.9259 14.4485 12 14.0603 12C13.6572 12 13.2802 11.9259 12.9294 11.7778C12.5785 11.6296 12.2687 11.4222 12 11.1556C11.7462 11.4222 11.4513 11.6296 11.1154 11.7778C10.7795 11.9259 10.4174 12 10.0293 12C9.59628 12 9.20437 11.9259 8.85352 11.7778C8.50267 11.6296 8.19287 11.4222 7.92413 11.1556C7.6106 11.4667 7.30081 11.6852 6.99474 11.8111C6.68868 11.937 6.34156 12 5.95338 12H5.85261C5.81528 12 5.77422 11.9852 5.72943 11.9556V18.2222Z" fill="#959595"/>
</g>
</svg>
