<svg width="24" height="24" viewBox="0 0 24 24" fill="none" xmlns="http://www.w3.org/2000/svg">
<mask id="mask0_9603_2949" style="mask-type:alpha" maskUnits="userSpaceOnUse" x="0" y="0" width="24" height="24">
<rect width="24" height="24" fill="#D9D9D9"/>
</mask>
<g mask="url(#mask0_9603_2949)">
<path d="M4.89474 21C4.37368 21 3.92763 20.815 3.55658 20.4451C3.18553 20.0752 3 19.6306 3 19.1111V5.88889C3 5.36944 3.18553 4.92477 3.55658 4.55486C3.92763 4.18495 4.37368 4 4.89474 4H18.1579C18.6789 4 19.125 4.18495 19.4961 4.55486C19.8671 4.92477 20.0526 5.36944 20.0526 5.88889H12.4737C11.3526 5.88889 10.4408 6.23912 9.73816 6.93958C9.03553 7.64005 8.68421 8.54907 8.68421 9.66667V15.3333C8.68421 16.4509 9.03553 17.36 9.73816 18.0604C10.4408 18.7609 11.3526 19.1111 12.4737 19.1111H20.0526C20.0526 19.6306 19.8671 20.0752 19.4961 20.4451C19.125 20.815 18.6789 21 18.1579 21H4.89474ZM12.4737 17.2222C11.9526 17.2222 11.5066 17.0373 11.1355 16.6674C10.7645 16.2975 10.5789 15.8528 10.5789 15.3333V9.66667C10.5789 9.14722 10.7645 8.70255 11.1355 8.33264C11.5066 7.96273 11.9526 7.77778 12.4737 7.77778H19.1053C19.6263 7.77778 20.0724 7.96273 20.4434 8.33264C20.8145 8.70255 21 9.14722 21 9.66667V15.3333C21 15.8528 20.8145 16.2975 20.4434 16.6674C20.0724 17.0373 19.6263 17.2222 19.1053 17.2222H12.4737ZM15.3158 13.9167C15.7263 13.9167 16.0658 13.7829 16.3342 13.5153C16.6026 13.2477 16.7368 12.9093 16.7368 12.5C16.7368 12.0907 16.6026 11.7523 16.3342 11.4847C16.0658 11.2171 15.7263 11.0833 15.3158 11.0833C14.9053 11.0833 14.5658 11.2171 14.2974 11.4847C14.0289 11.7523 13.8947 12.0907 13.8947 12.5C13.8947 12.9093 14.0289 13.2477 14.2974 13.5153C14.5658 13.7829 14.9053 13.9167 15.3158 13.9167Z" fill="#222222"/>
</g>
</svg>
