<svg width="362" height="194" viewBox="0 0 362 194" fill="none" xmlns="http://www.w3.org/2000/svg">
<path d="M83.896 191.608C82.4453 191.608 81.1867 191.395 80.12 190.968C79.0533 190.584 78.1787 189.987 77.496 189.176C76.8133 188.323 76.3013 187.277 75.96 186.04C75.6613 184.76 75.512 183.267 75.512 181.56V169.656C75.512 168.163 75.2987 166.883 74.872 165.816C74.4453 164.707 73.7413 163.875 72.76 163.32C71.8213 162.723 70.5627 162.424 68.984 162.424C67.8747 162.424 66.744 162.616 65.592 163C64.4827 163.384 63.416 164.024 62.392 164.92C61.368 165.773 60.4507 166.947 59.64 168.44C58.872 169.933 58.2533 171.768 57.784 173.944L56.12 174.008C56.12 171.576 56.44 169.357 57.08 167.352C57.7627 165.304 58.7013 163.533 59.896 162.04C61.1333 160.504 62.584 159.331 64.248 158.52C65.912 157.709 67.7467 157.304 69.752 157.304C71.928 157.304 73.848 157.709 75.512 158.52C77.2187 159.331 78.5627 160.611 79.544 162.36C80.5253 164.067 81.016 166.328 81.016 169.144V181.56C81.016 183.48 81.2933 184.845 81.848 185.656C82.4453 186.424 83.5333 186.808 85.112 186.808C85.7093 186.808 86.136 187.064 86.392 187.576C86.6907 188.045 86.7973 188.6 86.712 189.24C86.6693 189.837 86.4133 190.371 85.944 190.84C85.4747 191.352 84.792 191.608 83.896 191.608ZM35.704 191.48C34.808 191.48 34.1253 191.331 33.656 191.032C33.2293 190.776 33.016 190.371 33.016 189.816V159.224C33.016 158.669 33.2293 158.264 33.656 158.008C34.1253 157.709 34.808 157.56 35.704 157.56C36.6427 157.56 37.3467 157.709 37.816 158.008C38.2853 158.264 38.52 158.669 38.52 159.224V163C39.2027 161.933 39.9493 161.037 40.76 160.312C41.6133 159.587 42.4667 159.011 43.32 158.584C44.216 158.115 45.0907 157.795 45.944 157.624C46.84 157.411 47.672 157.304 48.44 157.304C50.616 157.304 52.5573 157.709 54.264 158.52C55.9707 159.331 57.3147 160.611 58.296 162.36C59.32 164.067 59.832 166.328 59.832 169.144V189.816C59.832 190.371 59.5973 190.776 59.128 191.032C58.6587 191.331 57.9547 191.48 57.016 191.48C56.0773 191.48 55.3733 191.331 54.904 191.032C54.4773 190.776 54.264 190.371 54.264 189.816V169.656C54.264 168.12 54.0507 166.819 53.624 165.752C53.1973 164.643 52.4933 163.811 51.512 163.256C50.5733 162.701 49.2933 162.424 47.672 162.424C46.904 162.424 46.1147 162.552 45.304 162.808C44.4933 163.021 43.6613 163.405 42.808 163.96C41.9973 164.515 41.2293 165.24 40.504 166.136C39.7787 167.032 39.1173 168.141 38.52 169.464V189.816C38.52 190.371 38.2853 190.776 37.816 191.032C37.3467 191.331 36.6427 191.48 35.704 191.48ZM83.8875 191.608C83.2902 191.608 82.8635 191.352 82.6075 190.84C82.3088 190.371 82.2022 189.837 82.2875 189.24C82.3302 188.6 82.5862 188.045 83.0555 187.576C83.5248 187.064 84.2075 186.808 85.1035 186.808C85.9995 186.808 87.0448 186.595 88.2395 186.168C89.3915 185.699 90.6288 185.08 91.9515 184.312C93.2742 183.501 94.5968 182.584 95.9195 181.56C96.4742 181.091 96.9862 180.941 97.4555 181.112C97.9675 181.24 98.3728 181.539 98.6715 182.008C98.9702 182.477 99.0982 183.011 99.0555 183.608C99.0555 184.163 98.7995 184.632 98.2875 185.016C96.6235 186.296 94.9168 187.448 93.1675 188.472C91.4608 189.453 89.8182 190.221 88.2395 190.776C86.6182 191.331 85.1675 191.608 83.8875 191.608ZM95.9835 181.624C98.5862 179.832 100.762 178.211 102.512 176.76C104.261 175.309 105.648 173.965 106.672 172.728C107.738 171.491 108.506 170.317 108.976 169.208C109.445 168.099 109.68 167.032 109.68 166.008C109.68 164.728 109.338 163.811 108.656 163.256C107.973 162.701 107.077 162.424 105.968 162.424C104.944 162.424 103.984 162.723 103.088 163.32C102.192 163.875 101.381 164.664 100.656 165.688C99.9728 166.712 99.4395 167.928 99.0555 169.336C98.6715 170.744 98.4795 172.28 98.4795 173.944C98.4795 176.12 98.7782 178.019 99.3755 179.64C99.9728 181.261 100.805 182.627 101.872 183.736C102.938 184.803 104.176 185.613 105.583 186.168C106.992 186.68 108.528 186.936 110.192 186.936C110.832 186.936 111.301 187.171 111.6 187.64C111.898 188.109 112.048 188.664 112.048 189.304C112.048 189.901 111.898 190.435 111.6 190.904C111.301 191.373 110.832 191.608 110.192 191.608C106.224 191.608 102.96 190.861 100.4 189.368C97.8395 187.832 95.9195 185.763 94.6395 183.16C93.4022 180.515 92.7835 177.528 92.7835 174.2C92.7835 171.64 93.1248 169.336 93.8075 167.288C94.4902 165.197 95.4502 163.405 96.6875 161.912C97.9248 160.419 99.3755 159.288 101.04 158.52C102.704 157.709 104.538 157.304 106.544 157.304C108.293 157.304 109.808 157.667 111.088 158.392C112.41 159.117 113.434 160.099 114.16 161.336C114.928 162.573 115.312 164.003 115.312 165.624C115.312 166.904 115.077 168.184 114.608 169.464C114.138 170.744 113.349 172.088 112.24 173.496C111.13 174.904 109.637 176.419 107.76 178.04C105.882 179.661 103.557 181.453 100.784 183.416L95.9835 181.624ZM110.209 191.608C109.399 191.608 108.801 191.373 108.417 190.904C108.033 190.435 107.841 189.901 107.841 189.304C107.841 188.664 108.033 188.109 108.417 187.64C108.801 187.171 109.399 186.936 110.209 186.936C112.94 186.936 115.137 186.467 116.801 185.528C118.465 184.589 119.767 183.352 120.706 181.816C121.644 180.237 122.348 178.509 122.818 176.632C123.287 174.712 123.671 172.771 123.97 170.808C124.226 169.101 124.546 167.459 124.93 165.88C125.314 164.301 125.826 162.893 126.466 161.656C127.148 160.376 128.066 159.373 129.218 158.648C130.412 157.923 131.927 157.56 133.762 157.56C134.146 157.56 134.423 157.816 134.594 158.328C134.807 158.797 134.892 159.352 134.85 159.992C134.85 160.589 134.743 161.144 134.53 161.656C134.316 162.125 134.018 162.36 133.634 162.36C132.78 162.36 132.076 162.573 131.522 163C130.967 163.427 130.519 164.045 130.178 164.856C129.836 165.667 129.538 166.669 129.282 167.864C129.026 169.016 128.77 170.36 128.514 171.896C128.215 173.603 127.852 175.373 127.426 177.208C127.042 179.043 126.466 180.813 125.698 182.52C124.972 184.227 123.948 185.763 122.626 187.128C121.346 188.493 119.703 189.581 117.697 190.392C115.692 191.203 113.196 191.608 110.209 191.608ZM133.442 191.48C132.546 191.48 131.863 191.331 131.394 191.032C130.967 190.776 130.754 190.371 130.754 189.816V166.904C130.754 165.112 130.498 163.917 129.986 163.32C129.474 162.68 128.556 162.36 127.234 162.36C126.594 162.36 126.124 162.125 125.826 161.656C125.527 161.144 125.378 160.589 125.378 159.992C125.378 159.352 125.548 158.797 125.89 158.328C126.231 157.816 126.722 157.56 127.362 157.56C128.599 157.56 129.687 157.688 130.626 157.944C131.564 158.2 132.375 158.605 133.058 159.16C133.783 159.715 134.38 160.397 134.85 161.208C135.319 162.019 135.66 162.979 135.874 164.088L135.938 164.408C136.407 163.299 136.962 162.317 137.602 161.464C138.242 160.568 138.924 159.821 139.65 159.224C140.375 158.584 141.122 158.115 141.89 157.816C142.7 157.475 143.49 157.304 144.258 157.304C145.068 157.304 145.666 157.56 146.05 158.072C146.476 158.584 146.69 159.181 146.69 159.864C146.69 160.547 146.476 161.144 146.05 161.656C145.666 162.168 145.068 162.424 144.258 162.424C143.49 162.424 142.7 162.659 141.89 163.128C141.122 163.555 140.375 164.195 139.65 165.048C138.967 165.859 138.327 166.84 137.73 167.992C137.175 169.101 136.684 170.339 136.258 171.704V189.816C136.258 190.371 136.023 190.776 135.554 191.032C135.084 191.331 134.38 191.48 133.442 191.48ZM151.816 170.104C149.725 170.104 147.997 169.699 146.632 168.888C145.224 168.077 144.2 166.904 143.56 165.368C142.877 163.789 142.536 161.848 142.536 159.544L144.264 157.304C145.288 157.304 146.077 157.539 146.632 158.008C147.187 158.435 147.464 159.181 147.464 160.248C147.464 161.485 147.656 162.531 148.04 163.384C148.381 164.195 148.957 164.813 149.768 165.24C150.579 165.624 151.667 165.816 153.032 165.816C153.843 165.816 154.803 165.688 155.912 165.432C157.021 165.176 158.152 164.771 159.304 164.216C160.456 163.619 161.501 162.808 162.44 161.784C162.867 161.315 163.357 161.165 163.912 161.336C164.509 161.464 164.915 161.784 165.128 162.296C165.384 162.765 165.235 163.32 164.68 163.96C163.699 165.112 162.504 166.157 161.096 167.096C159.731 168.035 158.237 168.781 156.616 169.336C155.037 169.848 153.437 170.104 151.816 170.104ZM171.784 191.608C166.28 191.608 161.907 190.115 158.664 187.128C155.421 184.141 153.8 179.939 153.8 174.52C153.8 172.003 154.163 169.699 154.888 167.608C155.656 165.517 156.701 163.704 158.024 162.168C159.347 160.632 160.904 159.437 162.696 158.584C164.531 157.731 166.536 157.304 168.712 157.304C170.675 157.304 172.68 157.731 174.728 158.584C176.776 159.437 178.568 160.803 180.104 162.68C180.573 163.277 180.744 163.789 180.616 164.216C180.488 164.6 180.189 165.048 179.72 165.56C179.165 166.115 178.653 166.456 178.184 166.584C177.715 166.712 177.224 166.563 176.712 166.136C175.517 165.155 174.344 164.301 173.192 163.576C172.083 162.808 170.589 162.424 168.712 162.424C167.304 162.424 166.024 162.701 164.872 163.256C163.72 163.811 162.739 164.621 161.928 165.688C161.16 166.755 160.563 168.035 160.136 169.528C159.709 170.979 159.496 172.643 159.496 174.52C159.496 177.08 159.987 179.277 160.968 181.112C161.992 182.947 163.421 184.355 165.256 185.336C167.133 186.317 169.309 186.808 171.784 186.808C172.381 186.808 172.829 187.064 173.128 187.576C173.469 188.045 173.64 188.6 173.64 189.24C173.64 189.837 173.491 190.371 173.192 190.84C172.893 191.352 172.424 191.608 171.784 191.608ZM171.794 191.608C170.983 191.608 170.386 191.352 170.002 190.84C169.618 190.371 169.426 189.837 169.426 189.24C169.426 188.6 169.618 188.045 170.002 187.576C170.386 187.064 170.983 186.808 171.794 186.808C174.311 186.808 176.765 186.125 179.154 184.76C181.543 183.352 183.783 181.347 185.874 178.744C188.007 176.099 189.863 172.92 191.442 169.208C191.698 168.611 192.125 168.333 192.722 168.376C193.319 168.376 193.831 168.611 194.258 169.08C194.685 169.549 194.727 170.168 194.386 170.936C192.935 174.264 191.335 177.208 189.586 179.768C187.879 182.328 186.045 184.504 184.082 186.296C182.162 188.045 180.178 189.368 178.13 190.264C176.039 191.16 173.927 191.608 171.794 191.608ZM221.714 191.608C220.263 191.608 219.005 191.395 217.938 190.968C216.871 190.584 215.997 189.987 215.314 189.176C214.631 188.323 214.119 187.277 213.778 186.04C213.479 184.76 213.33 183.267 213.33 181.56V169.656C213.33 168.163 213.095 166.883 212.626 165.816C212.199 164.707 211.517 163.875 210.578 163.32C209.639 162.723 208.381 162.424 206.802 162.424C205.693 162.424 204.562 162.616 203.41 163C202.258 163.384 201.149 164.024 200.082 164.92C199.058 165.816 198.141 167.011 197.33 168.504C196.519 169.955 195.879 171.768 195.41 173.944L194.77 170.424C195.751 168.504 196.711 166.755 197.65 165.176C198.631 163.555 199.655 162.168 200.722 161.016C201.789 159.821 202.941 158.904 204.178 158.264C205.458 157.624 206.887 157.304 208.466 157.304C210.386 157.304 212.114 157.709 213.65 158.52C215.229 159.331 216.487 160.611 217.426 162.36C218.365 164.067 218.834 166.328 218.834 169.144V181.56C218.834 183.48 219.111 184.845 219.666 185.656C220.263 186.424 221.351 186.808 222.93 186.808C223.527 186.808 223.975 187.064 224.274 187.576C224.573 188.045 224.679 188.6 224.594 189.24C224.551 189.837 224.295 190.371 223.826 190.84C223.357 191.352 222.653 191.608 221.714 191.608ZM193.81 191.48C192.871 191.48 192.189 191.331 191.762 191.032C191.335 190.776 191.122 190.371 191.122 189.816V140.856C191.122 136.76 191.805 133.731 193.17 131.768C194.535 129.763 196.626 128.76 199.442 128.76C201.234 128.76 202.727 129.165 203.922 129.976C205.159 130.744 206.055 131.917 206.61 133.496C207.207 135.075 207.506 137.059 207.506 139.448C207.506 140.685 207.442 141.944 207.314 143.224C207.186 144.504 206.994 145.827 206.738 147.192C206.482 148.557 206.141 149.944 205.714 151.352C205.287 152.717 204.775 154.125 204.178 155.576C203.623 157.027 202.962 158.499 202.194 159.992C201.469 161.443 200.637 162.893 199.698 164.344C198.802 165.795 197.778 167.245 196.626 168.696V189.816C196.626 190.371 196.391 190.776 195.922 191.032C195.453 191.331 194.749 191.48 193.81 191.48ZM196.626 162.744C197.095 161.72 197.543 160.611 197.97 159.416C198.397 158.221 198.802 157.005 199.186 155.768C199.613 154.488 199.997 153.165 200.338 151.8C200.679 150.392 200.978 149.005 201.234 147.64C201.49 146.232 201.682 144.845 201.81 143.48C201.938 142.115 202.002 140.771 202.002 139.448C202.002 138.467 201.895 137.549 201.682 136.696C201.511 135.843 201.234 135.16 200.85 134.648C200.466 134.136 199.975 133.88 199.378 133.88C198.781 133.88 198.269 134.093 197.842 134.52C197.415 134.947 197.095 135.672 196.882 136.696C196.711 137.677 196.626 139.064 196.626 140.856V162.744ZM221.7 191.608C221.103 191.608 220.676 191.352 220.42 190.84C220.121 190.371 220.015 189.837 220.1 189.24C220.143 188.6 220.399 188.045 220.868 187.576C221.337 187.064 222.02 186.808 222.916 186.808C224.196 186.808 225.348 186.637 226.372 186.296C227.353 185.955 228.207 185.443 228.932 184.76C229.657 184.077 230.233 183.224 230.66 182.2C231.129 181.176 231.449 179.981 231.62 178.616C231.705 177.976 232.025 177.571 232.58 177.4C233.135 177.187 233.668 177.187 234.18 177.4C234.735 177.571 234.969 177.976 234.884 178.616C234.713 180.877 234.265 182.84 233.54 184.504C232.815 186.125 231.876 187.469 230.724 188.536C229.572 189.56 228.228 190.328 226.692 190.84C225.199 191.352 223.535 191.608 221.7 191.608ZM243.78 191.608C241.348 191.608 239.193 191.032 237.316 189.88C235.439 188.685 233.967 186.893 232.9 184.504C231.833 182.115 231.3 179.107 231.3 175.48C231.3 173.261 231.513 171.213 231.94 169.336C232.367 167.459 232.964 165.773 233.732 164.28C234.543 162.787 235.524 161.528 236.676 160.504C237.871 159.48 239.215 158.691 240.708 158.136C242.201 157.581 243.844 157.304 245.636 157.304C247.385 157.304 249.177 157.645 251.012 158.328C252.847 159.011 254.489 159.907 255.94 161.016V165.816C254.233 164.451 252.591 163.533 251.012 163.064C249.476 162.595 247.876 162.36 246.212 162.36C245.103 162.36 244.057 162.531 243.076 162.872C242.137 163.213 241.284 163.725 240.516 164.408C239.791 165.091 239.151 165.944 238.596 166.968C238.084 167.992 237.679 169.187 237.38 170.552C237.124 171.917 236.996 173.475 236.996 175.224C236.996 177.571 237.273 179.597 237.828 181.304C238.383 182.968 239.215 184.248 240.324 185.144C241.476 186.04 242.905 186.488 244.612 186.488C246.148 186.488 247.577 186.147 248.9 185.464C250.265 184.739 251.503 183.608 252.612 182.072C253.764 180.493 254.745 178.424 255.556 175.864L256.58 179.768C255.599 183.053 254.383 185.549 252.932 187.256C251.524 188.963 250.009 190.115 248.388 190.712C246.809 191.309 245.273 191.608 243.78 191.608ZM262.34 191.608C260.889 191.608 259.631 191.395 258.564 190.968C257.497 190.584 256.623 189.987 255.94 189.176C255.257 188.323 254.745 187.277 254.404 186.04C254.105 184.76 253.956 183.267 253.956 181.56V159.416C253.956 158.776 254.191 158.307 254.66 158.008C255.129 157.709 255.833 157.56 256.772 157.56C257.668 157.56 258.329 157.709 258.756 158.008C259.225 158.264 259.46 158.691 259.46 159.288V181.56C259.46 183.48 259.737 184.845 260.292 185.656C260.889 186.424 261.977 186.808 263.556 186.808C263.94 186.808 264.217 187.064 264.388 187.576C264.601 188.045 264.665 188.6 264.58 189.24C264.537 189.837 264.324 190.371 263.94 190.84C263.599 191.352 263.065 191.608 262.34 191.608ZM262.325 191.608C261.728 191.608 261.301 191.352 261.045 190.84C260.746 190.371 260.64 189.837 260.725 189.24C260.768 188.6 261.024 188.045 261.493 187.576C261.962 187.064 262.645 186.808 263.541 186.808C264.949 186.808 266.25 186.573 267.445 186.104C268.64 185.635 269.728 184.973 270.709 184.12C271.69 183.267 272.544 182.264 273.269 181.112C274.037 179.96 274.677 178.723 275.189 177.4C275.445 176.76 275.808 176.483 276.277 176.568C276.789 176.611 277.216 176.845 277.557 177.272C277.941 177.699 278.069 178.147 277.941 178.616C277.301 180.664 276.469 182.499 275.445 184.12C274.464 185.699 273.312 187.064 271.989 188.216C270.709 189.325 269.258 190.157 267.637 190.712C266.016 191.309 264.245 191.608 262.325 191.608ZM305.269 191.608C303.818 191.608 302.56 191.395 301.493 190.968C300.426 190.584 299.552 189.987 298.869 189.176C298.186 188.323 297.674 187.277 297.333 186.04C297.034 184.76 296.885 183.267 296.885 181.56V169.656C296.885 168.163 296.65 166.883 296.181 165.816C295.754 164.707 295.072 163.875 294.133 163.32C293.194 162.723 291.936 162.424 290.357 162.424C289.461 162.424 288.522 162.552 287.541 162.808C286.602 163.064 285.685 163.491 284.789 164.088C283.936 164.643 283.104 165.389 282.293 166.328C281.525 167.267 280.842 168.419 280.245 169.784V189.816C280.245 190.371 280.01 190.776 279.541 191.032C279.072 191.331 278.368 191.48 277.429 191.48C276.533 191.48 275.85 191.331 275.381 191.032C274.954 190.776 274.741 190.371 274.741 189.816V159.224C274.741 158.669 274.954 158.264 275.381 158.008C275.85 157.709 276.533 157.56 277.429 157.56C278.368 157.56 279.072 157.709 279.541 158.008C280.01 158.264 280.245 158.669 280.245 159.224V163.384C280.842 162.445 281.525 161.613 282.293 160.888C283.104 160.12 283.957 159.48 284.853 158.968C285.792 158.413 286.773 158.008 287.797 157.752C288.864 157.453 289.973 157.304 291.125 157.304C293.344 157.304 295.285 157.709 296.949 158.52C298.656 159.331 299.978 160.611 300.917 162.36C301.898 164.067 302.389 166.328 302.389 169.144V181.56C302.389 183.48 302.666 184.845 303.221 185.656C303.818 186.424 304.906 186.808 306.485 186.808C307.082 186.808 307.53 187.064 307.829 187.576C308.128 188.045 308.234 188.6 308.149 189.24C308.106 189.837 307.85 190.371 307.381 190.84C306.912 191.352 306.208 191.608 305.269 191.608ZM305.262 191.608C304.665 191.608 304.238 191.352 303.982 190.84C303.684 190.371 303.577 189.837 303.662 189.24C303.705 188.6 303.961 188.045 304.43 187.576C304.9 187.064 305.582 186.808 306.478 186.808C307.929 186.808 309.252 186.552 310.447 186.04C311.684 185.528 312.793 184.824 313.775 183.928C314.756 183.032 315.631 181.965 316.399 180.728C317.209 179.491 317.892 178.147 318.447 176.696C318.703 176.056 319.087 175.779 319.599 175.864C320.111 175.907 320.537 176.12 320.879 176.504C321.263 176.888 321.391 177.315 321.263 177.784C320.58 179.96 319.727 181.901 318.703 183.608C317.679 185.315 316.484 186.765 315.119 187.96C313.796 189.155 312.303 190.051 310.639 190.648C309.017 191.288 307.225 191.608 305.262 191.608ZM325.615 191.608C323.823 191.608 322.329 191.267 321.135 190.584C319.983 189.944 319.108 189.027 318.51 187.832C317.956 186.595 317.679 185.123 317.679 183.416V163.64H312.687C312.047 163.64 311.599 163.448 311.343 163.064C311.087 162.68 310.959 162.019 310.959 161.08C310.959 160.099 311.087 159.437 311.343 159.096C311.599 158.712 312.047 158.52 312.687 158.52H317.679V145.464C317.679 144.909 317.892 144.504 318.319 144.248C318.788 143.949 319.471 143.8 320.367 143.8C321.305 143.8 322.009 143.949 322.479 144.248C322.948 144.504 323.183 144.909 323.183 145.464V158.52H331.247C331.887 158.52 332.335 158.712 332.591 159.096C332.889 159.437 333.039 160.099 333.039 161.08C333.039 162.019 332.889 162.68 332.591 163.064C332.335 163.448 331.887 163.64 331.247 163.64H323.183V182.776C323.183 184.227 323.375 185.272 323.759 185.912C324.185 186.509 324.932 186.808 325.999 186.808C326.98 186.808 327.812 186.573 328.495 186.104C329.22 185.635 329.967 185.059 330.735 184.376C331.247 183.907 331.716 183.757 332.143 183.928C332.612 184.056 333.039 184.312 333.423 184.696C333.892 185.123 334.127 185.571 334.127 186.04C334.169 186.467 334.063 186.872 333.807 187.256C333.081 188.323 332.271 189.176 331.375 189.816C330.479 190.456 329.54 190.904 328.559 191.16C327.577 191.459 326.596 191.608 325.615 191.608Z" fill="black"/>
<path d="M119.552 125.696C115.797 125.696 112.597 125.013 109.952 123.648C107.392 122.368 105.259 120.576 103.552 118.272C101.931 115.968 100.523 113.365 99.328 110.464C98.2187 107.477 97.1947 104.363 96.256 101.12C95.4027 97.792 94.4213 94.5067 93.312 91.264C92.288 88.0213 91.008 84.9493 89.472 82.048C88.0213 79.0613 86.144 76.4587 83.84 74.24C81.6213 71.936 78.7627 70.1013 75.264 68.736C71.8507 67.3707 67.712 66.688 62.848 66.688H56.96V121.728C56.96 122.923 56.4907 123.819 55.552 124.416C54.6133 125.013 53.2053 125.312 51.328 125.312C49.4507 125.312 48.0427 125.013 47.104 124.416C46.1653 123.819 45.696 122.923 45.696 121.728V14.592C44.5867 15.36 43.264 16 41.728 16.512C40.2773 16.9387 38.656 17.152 36.864 17.152C35.1573 17.152 33.6213 17.024 32.256 16.768C30.8907 16.4266 29.568 16.0426 28.288 15.616C27.0933 15.1893 25.8987 14.8053 24.704 14.464C23.5093 14.1226 22.272 13.952 20.992 13.952C19.6267 13.952 18.3893 14.336 17.28 15.104C16.256 15.7866 15.4453 16.768 14.848 18.048C14.2507 19.2426 13.952 20.6507 13.952 22.272C13.952 23.552 13.568 24.6187 12.8 25.472C12.032 26.24 10.6667 26.624 8.704 26.624C6.82667 26.624 5.504 26.24 4.736 25.472C3.968 24.6187 3.584 23.552 3.584 22.272C3.584 18.3467 4.26667 14.976 5.632 12.16C7.08267 9.34398 9.088 7.16798 11.648 5.63198C14.208 4.01065 17.28 3.19998 20.864 3.19998C22.8267 3.19998 24.576 3.37065 26.112 3.71198C27.648 4.05332 29.056 4.47998 30.336 4.99198C31.7013 5.41865 33.024 5.80265 34.304 6.14398C35.584 6.39998 36.9493 6.52798 38.4 6.52798C39.936 6.52798 41.344 6.18665 42.624 5.50398C43.9893 4.82131 45.1413 4.01065 46.08 3.07198C47.2747 2.13332 48.256 1.49332 49.024 1.15199C49.8773 0.725319 50.8587 0.511986 51.968 0.511986C53.5893 0.511986 54.8267 0.810651 55.68 1.40798C56.5333 1.91998 56.96 2.77332 56.96 3.96799V56.448H62.208C66.6453 56.448 70.4 55.68 73.472 54.144C76.544 52.5226 79.0613 50.3893 81.024 47.744C83.072 45.0987 84.8213 42.112 86.272 38.784C87.7227 35.456 89.0453 32.0427 90.24 28.544C91.4347 24.96 92.7147 21.504 94.08 18.176C95.4453 14.848 97.1093 11.8613 99.072 9.21598C101.035 6.57065 103.424 4.47999 106.24 2.94398C109.141 1.32265 112.683 0.511986 116.864 0.511986C119.424 0.511986 121.685 0.767985 123.648 1.27998C125.696 1.79198 127.488 2.43198 129.024 3.19998C130.304 3.96798 131.115 4.82132 131.456 5.75999C131.797 6.69865 131.627 7.89332 130.944 9.34399C130.347 11.0507 129.621 12.1173 128.768 12.544C127.915 12.9706 126.763 12.928 125.312 12.416C124.373 12.0747 123.179 11.7333 121.728 11.392C120.363 10.9653 118.741 10.752 116.864 10.752C114.475 10.752 112.469 11.3067 110.848 12.416C109.227 13.5253 107.776 15.0187 106.496 16.896C105.301 18.7733 104.192 20.9493 103.168 23.424C102.229 25.8133 101.291 28.416 100.352 31.232C99.4987 33.9627 98.56 36.736 97.536 39.552C96.512 42.368 95.2747 45.0987 93.824 47.744C92.4587 50.304 90.7947 52.6933 88.832 54.912C86.8693 57.1307 84.5227 58.9653 81.792 60.416C85.4613 61.696 88.6187 63.488 91.264 65.792C93.9093 68.096 96.0853 70.6987 97.792 73.6C99.584 76.416 101.077 79.4453 102.272 82.688C103.467 85.8453 104.533 89.0453 105.472 92.288C106.496 95.4453 107.435 98.4747 108.288 101.376C109.227 104.192 110.293 106.709 111.488 108.928C112.683 111.147 114.091 112.896 115.712 114.176C117.419 115.456 119.509 116.096 121.984 116.096C123.605 116.096 124.672 116.608 125.184 117.632C125.781 118.571 125.909 119.68 125.568 120.96C125.227 122.155 124.544 123.221 123.52 124.16C122.496 125.184 121.173 125.696 119.552 125.696ZM119.525 125.696C118.33 125.696 117.477 125.184 116.965 124.16C116.368 123.221 116.154 122.155 116.325 120.96C116.41 119.68 116.922 118.571 117.861 117.632C118.8 116.608 120.165 116.096 121.957 116.096C124.517 116.096 126.821 115.755 128.869 115.072C130.832 114.389 132.538 113.365 133.989 112C135.44 110.635 136.592 108.928 137.445 106.88C138.384 104.832 139.024 102.443 139.365 99.712C139.536 98.432 140.176 97.6213 141.285 97.28C142.394 96.8533 143.461 96.8533 144.485 97.28C145.594 97.6213 146.064 98.432 145.893 99.712C145.552 104.235 144.656 108.16 143.205 111.488C141.754 114.731 139.877 117.419 137.573 119.552C135.269 121.6 132.581 123.136 129.509 124.16C126.522 125.184 123.194 125.696 119.525 125.696ZM168.549 125.952C162.832 125.952 157.712 124.459 153.189 121.472C148.752 118.485 145.253 114.432 142.693 109.312C140.133 104.107 138.853 98.176 138.853 91.52C138.853 86.4853 139.578 81.8773 141.029 77.696C142.48 73.5147 144.528 69.888 147.173 66.816C149.904 63.744 153.061 61.3547 156.645 59.648C160.229 57.9413 164.197 57.088 168.549 57.088C174.266 57.088 179.344 58.5813 183.781 61.568C188.218 64.4693 191.717 68.5227 194.277 73.728C196.837 78.9333 198.117 84.864 198.117 91.52C198.117 95.5307 197.648 99.2853 196.709 102.784C195.77 106.283 194.405 109.44 192.613 112.256C190.906 115.072 188.816 117.504 186.341 119.552C183.952 121.6 181.221 123.179 178.149 124.288C175.162 125.397 171.962 125.952 168.549 125.952ZM168.549 115.712C171.365 115.712 173.882 115.157 176.101 114.048C178.405 112.939 180.325 111.317 181.861 109.184C183.482 107.051 184.72 104.491 185.573 101.504C186.426 98.5173 186.853 95.1893 186.853 91.52C186.853 86.5707 186.128 82.304 184.677 78.72C183.226 75.0507 181.136 72.2347 178.405 70.272C175.674 68.3093 172.389 67.328 168.549 67.328C165.733 67.328 163.173 67.8827 160.869 68.992C158.565 70.1013 156.602 71.7227 154.981 73.856C153.445 75.9893 152.25 78.5493 151.397 81.536C150.544 84.4373 150.117 87.7653 150.117 91.52C150.117 96.4693 150.842 100.779 152.293 104.448C153.829 108.032 155.962 110.805 158.693 112.768C161.424 114.731 164.709 115.712 168.549 115.712ZM215.472 86.016C211.035 86.016 206.171 84.992 200.88 82.944C195.589 80.896 189.744 77.1413 183.344 71.68C182.32 70.7413 181.851 69.8027 181.936 68.864C181.936 67.9253 182.277 67.072 182.96 66.304C183.557 65.536 184.283 65.024 185.136 64.768C185.989 64.4267 186.672 64.4693 187.184 64.896C190.683 67.7973 194.053 70.1867 197.296 72.064C200.539 73.9413 203.653 75.3067 206.64 76.16C209.712 77.0133 212.613 77.44 215.344 77.44C217.819 77.44 220.123 77.0987 222.256 76.416C224.475 75.7333 226.565 74.752 228.528 73.472C230.491 72.1067 232.283 70.4853 233.904 68.608C235.525 66.7307 237.019 64.5547 238.384 62.08C239.749 59.52 240.944 56.7893 241.968 53.888C242.992 50.9867 243.845 47.8293 244.528 44.416C245.211 40.9173 245.723 37.248 246.064 33.408C246.491 29.568 246.704 25.5573 246.704 21.376C246.704 20.1813 247.259 19.2427 248.368 18.56C249.477 17.8773 250.757 17.536 252.208 17.536C253.659 17.536 254.939 17.8773 256.048 18.56C257.157 19.2427 257.712 20.1813 257.712 21.376C257.712 25.472 257.456 29.5253 256.944 33.536C256.517 37.5467 255.792 41.472 254.768 45.312C253.829 49.0667 252.677 52.6933 251.312 56.192C249.947 59.6907 248.325 62.976 246.448 66.048C244.656 69.0347 242.651 71.7653 240.432 74.24C238.299 76.7147 235.909 78.848 233.264 80.64C230.619 82.3467 227.803 83.6693 224.816 84.608C221.915 85.5467 218.8 86.016 215.472 86.016ZM245.424 125.952C242.096 125.952 238.981 125.355 236.08 124.16C233.264 123.051 230.747 121.387 228.528 119.168C226.395 116.864 224.731 114.005 223.536 110.592C222.341 107.179 221.744 103.253 221.744 98.816V24.192C221.744 16 223.109 9.94132 225.84 6.01598C228.571 2.00532 232.752 -1.52588e-05 238.384 -1.52588e-05C242.053 -1.52588e-05 245.083 0.810651 247.472 2.43198C249.861 3.96798 251.611 6.31465 252.72 9.47198C253.915 12.6293 254.512 16.5973 254.512 21.376C254.512 22.9973 253.957 24.192 252.848 24.96C251.739 25.728 250.459 26.112 249.008 26.112C247.557 26.112 246.277 25.728 245.168 24.96C244.059 24.192 243.504 22.9973 243.504 21.376C243.504 18.816 243.291 16.7253 242.864 15.104C242.523 13.4826 241.968 12.288 241.2 11.52C240.432 10.6666 239.451 10.24 238.256 10.24C237.061 10.24 236.037 10.6666 235.184 11.52C234.331 12.3733 233.691 13.824 233.264 15.872C232.923 17.8347 232.752 20.608 232.752 24.192V96.512C232.752 100.096 233.051 103.125 233.648 105.6C234.245 108.075 235.099 110.037 236.208 111.488C237.403 112.939 238.853 114.005 240.56 114.688C242.352 115.371 244.4 115.712 246.704 115.712C248.581 115.712 250.373 115.371 252.08 114.688C253.872 114.005 255.536 113.024 257.072 111.744C258.608 110.379 259.931 108.672 261.04 106.624C262.235 104.491 263.131 102.059 263.728 99.328C264.411 96.512 264.752 93.312 264.752 89.728C264.752 87.936 264.624 86.144 264.368 84.352C264.197 82.4747 263.941 80.64 263.6 78.848C263.259 76.9707 262.832 75.2213 262.32 73.6C259.76 72.2347 257.755 70.8693 256.304 69.504C254.853 68.0533 254.128 66.176 254.128 63.872C254.128 62.4213 254.597 60.928 255.536 59.392C256.56 57.856 258.352 57.088 260.912 57.088C263.472 57.088 265.648 58.1547 267.44 60.288C269.232 62.336 270.683 65.0667 271.792 68.48C272.987 71.8933 273.84 75.5627 274.352 79.488C274.949 83.4133 275.248 87.2107 275.248 90.88C275.248 94.464 274.864 98.0053 274.096 101.504C273.328 104.917 272.133 108.117 270.512 111.104C268.976 114.005 267.013 116.565 264.624 118.784C262.235 121.003 259.419 122.752 256.176 124.032C253.019 125.312 249.435 125.952 245.424 125.952ZM285.265 76.928C281.681 76.928 278.097 76.544 274.513 75.776C270.844 75.008 267.345 73.728 264.017 71.936C263.42 71.5947 263.078 70.9547 262.993 70.016C262.822 69.0773 262.865 68.096 263.121 67.072C263.292 66.048 263.59 65.2373 264.017 64.64C264.444 64.0427 264.913 63.872 265.425 64.128C267.985 65.5787 270.972 66.6453 274.385 67.328C277.798 68.0107 281.34 68.352 285.009 68.352C287.91 68.352 290.812 68.1387 293.713 67.712C296.614 67.2853 299.43 66.6453 302.161 65.792C304.977 64.9387 307.494 63.9147 309.713 62.72C310.481 62.2933 311.164 62.5067 311.761 63.36C312.444 64.2133 312.828 65.2373 312.913 66.432C313.084 67.5413 312.828 68.3093 312.145 68.736C307.964 71.4667 303.526 73.5147 298.833 74.88C294.225 76.2453 289.702 76.928 285.265 76.928ZM324.049 125.952C318.332 125.952 313.212 124.459 308.689 121.472C304.252 118.485 300.753 114.432 298.193 109.312C295.633 104.107 294.353 98.176 294.353 91.52C294.353 86.4853 295.078 81.8773 296.529 77.696C297.98 73.5147 300.028 69.888 302.673 66.816C305.404 63.744 308.561 61.3547 312.145 59.648C315.729 57.9413 319.697 57.088 324.049 57.088C329.766 57.088 334.844 58.5813 339.281 61.568C343.718 64.4693 347.217 68.5227 349.777 73.728C352.337 78.9333 353.617 84.864 353.617 91.52C353.617 95.5307 353.148 99.2853 352.209 102.784C351.27 106.283 349.905 109.44 348.113 112.256C346.406 115.072 344.316 117.504 341.841 119.552C339.452 121.6 336.721 123.179 333.649 124.288C330.662 125.397 327.462 125.952 324.049 125.952ZM324.049 115.712C326.865 115.712 329.382 115.157 331.601 114.048C333.905 112.939 335.825 111.317 337.361 109.184C338.982 107.051 340.22 104.491 341.073 101.504C341.926 98.5173 342.353 95.1893 342.353 91.52C342.353 86.5707 341.628 82.304 340.177 78.72C338.726 75.0507 336.636 72.2347 333.905 70.272C331.174 68.3093 327.889 67.328 324.049 67.328C321.233 67.328 318.673 67.8827 316.369 68.992C314.065 70.1013 312.102 71.7227 310.481 73.856C308.945 75.9893 307.75 78.5493 306.897 81.536C306.044 84.4373 305.617 87.7653 305.617 91.52C305.617 96.4693 306.342 100.779 307.793 104.448C309.329 108.032 311.462 110.805 314.193 112.768C316.924 114.731 320.209 115.712 324.049 115.712Z" fill="black"/>
</svg>
